<?xml version="1.0" encoding="utf-8"?>
<!-- Generator: Adobe Illustrator 25.0.0, SVG Export Plug-In . SVG Version: 6.00 Build 0)  -->
<svg version="1.1" id="Capa_1" xmlns="http://www.w3.org/2000/svg" xmlns:xlink="http://www.w3.org/1999/xlink" x="0px" y="0px"
	 viewBox="0 0 640 480" style="enable-background:new 0 0 640 480;" xml:space="preserve">
<style type="text/css">
	.st0{fill:#3FA9F5;}
</style>
<g>
	<g id="XMLID_62_">
		<path id="XMLID_64_" class="st0" d="M309,386.09c-1.81-5.18-3.53-10.08-4.53-15.09c-1.31-6.59-4.02-23.6-0.84-39.31
			c2.15-10.62,6.53-18.22,13.04-22.72c-11.62-1.55-21.61-5.31-28.31-10.41c-7.84,3.55-13.91,8.99-19.26,16.91
			c-8.61,12.76-15.67,32.5-26.36,62.37l-0.53,1.48c-3.83,10.7-11.14,24.75-24.2,30.88c-10.91,5.13-29.19,4.22-36.4-4.64
			c-4.85-5.96-3.67-15.1-2.54-20.01c1.84-7.96,4.33-16.02,6.74-23.82c1.95-6.32,3.97-12.86,5.67-19.41
			c5-19.25,8.46-38.69,10.27-57.78c2.64-27.79-2.57-46.65-15.49-56.05c-14.09-10.25-32.56-5.68-39.91-3.22
			c-1.97-0.31-4.35-0.38-7.24-0.12c-6.31,0.58-14.06,2.66-21.81,5.85c-15.67,6.45-37.13,24.96-38.03,25.74
			c-1.73,1.5-2.3,3.93-1.43,6.04c0.82,2,2.77,3.29,4.91,3.29c0.12,0,0.24,0,0.36-0.01c1.19-0.08,29.47-2.04,45.14-8.49
			c7.75-3.19,14.72-7.17,19.61-11.19c5.97-4.92,7.71-9.04,7.71-12.17c0-0.15,0-0.3-0.01-0.45c1.13-0.24,2.35-0.46,3.62-0.64
			c8.61-1.18,15.62,0.15,20.83,3.95c4.21,3.07,7.34,7.88,9.3,14.32c2.49,8.18,3.12,19,1.87,32.13c-1.76,18.53-5.12,37.41-9.98,56.12
			c-1.64,6.31-3.62,12.74-5.54,18.94c-2.46,7.98-5.02,16.24-6.94,24.57c-2.72,11.75-1.07,22.09,4.65,29.11
			c5.13,6.29,13.58,10.35,23.81,11.41c1.74,0.18,3.51,0.27,5.28,0.27c7.18,0,14.4-1.45,20.08-4.12
			c16.37-7.69,25.18-24.32,29.68-36.92l0.53-1.48c10.42-29.12,17.3-48.35,25.16-60.01c2.8-4.15,5.76-7.39,9.2-9.91
			c-4.8,5.48-8.59,12.06-11.27,19.57c-3.39,9.52-5,20.57-4.76,32.83c0.07,3.68,0.31,7.6,0.57,11.74
			c1.14,18.59,2.44,39.67-10.69,49.9c-2.03,1.58-4.46,3-7.02,4.51c-5.31,3.12-11.33,6.65-15.07,12.62
			c-2.89,4.61-4.05,9.64-3.43,14.94c0.53,4.56,2.37,9.12,5.45,13.56c1.03,1.48,2.69,2.28,4.37,2.28c1.05,0,2.11-0.31,3.03-0.95
			c2.41-1.68,3-4.99,1.33-7.4c-4.28-6.15-4.86-11.79-1.74-16.77c2.36-3.77,6.77-6.35,11.44-9.1c2.75-1.61,5.59-3.28,8.17-5.29
			c17.56-13.67,16.01-38.77,14.77-58.94c-0.25-4.03-0.48-7.84-0.55-11.3c-0.37-19.14,4.26-34.76,13.41-45.19
			c0.86-0.98,1.72-1.87,2.57-2.68c-1.94,4.07-3.44,8.66-4.47,13.74c-3.57,17.61-0.61,36.29,0.84,43.5
			c1.14,5.74,3.06,11.22,4.92,16.53c2.38,6.79,4.62,13.2,5.23,19.83c0.55,6.05-0.69,11.42-3.51,15.12c-1.03,1.35-2.37,2.63-3.8,3.99
			c-1.76,1.67-3.58,3.4-5.17,5.58c-6.49,8.81-6.05,21.76,1.02,30.12c1.05,1.24,2.55,1.88,4.06,1.88c1.21,0,2.43-0.41,3.43-1.26
			c2.24-1.9,2.52-5.25,0.63-7.49c-3.85-4.55-4.1-12.16-0.57-16.96c1.05-1.42,2.45-2.76,3.94-4.18c1.66-1.58,3.38-3.22,4.92-5.24
			c4.44-5.82,6.44-13.82,5.65-22.53C314.05,400.53,311.48,393.19,309,386.09z"/>
		<path id="XMLID_63_" class="st0" d="M578.28,256.75c-0.9-0.78-22.36-19.29-38.03-25.74c-7.76-3.19-15.5-5.27-21.81-5.85
			c-2.88-0.27-5.27-0.2-7.23,0.12c-7.34-2.46-25.82-7.03-39.91,3.22c-12.92,9.4-18.14,28.26-15.49,56.05
			c1.81,19.09,5.27,38.54,10.27,57.78c1.7,6.55,3.72,13.09,5.67,19.41c2.41,7.8,4.91,15.87,6.74,23.82
			c1.13,4.91,2.32,14.05-2.54,20.01c-7.21,8.86-25.49,9.77-36.4,4.64c-13.06-6.14-20.37-20.18-24.2-30.88l-0.53-1.48
			c-10.69-29.88-17.74-49.61-26.36-62.37c-5.41-8.02-11.56-13.49-19.54-17.04c-7.31,5.63-18.6,9.65-31.68,10.9
			c6.23,4.54,10.42,12.02,12.52,22.35c3.18,15.71,0.47,32.72-0.84,39.31c-1,5.01-2.71,9.91-4.53,15.09
			c-2.48,7.1-5.06,14.44-5.78,22.37c-0.8,8.71,1.21,16.71,5.65,22.53c1.54,2.02,3.26,3.66,4.92,5.24c1.49,1.42,2.9,2.76,3.94,4.18
			c3.53,4.8,3.27,12.41-0.57,16.96c-1.9,2.24-1.61,5.6,0.63,7.49c1,0.84,2.22,1.26,3.43,1.26c1.51,0,3.01-0.64,4.06-1.88
			c7.06-8.36,7.5-21.31,1.02-30.12c-1.6-2.17-3.42-3.9-5.17-5.58c-1.42-1.35-2.77-2.64-3.8-3.99c-2.82-3.69-4.07-9.06-3.51-15.12
			c0.6-6.62,2.85-13.04,5.22-19.83c1.86-5.3,3.78-10.78,4.92-16.53c1.44-7.21,4.4-25.9,0.84-43.5c-1.24-6.12-3.16-11.53-5.71-16.17
			c1.71,1.35,3.55,3.03,5.36,5.1c9.14,10.43,13.78,26.06,13.41,45.19c-0.07,3.46-0.3,7.27-0.55,11.3
			c-1.24,20.17-2.78,45.27,14.77,58.94c2.58,2.01,5.42,3.68,8.17,5.29c4.67,2.74,9.09,5.33,11.45,9.1
			c3.12,4.98,2.54,10.62-1.74,16.77c-1.68,2.41-1.08,5.72,1.33,7.4c0.93,0.64,1.98,0.95,3.03,0.95c1.68,0,3.34-0.8,4.37-2.28
			c3.09-4.44,4.92-8.99,5.45-13.56c0.62-5.3-0.54-10.32-3.43-14.94c-3.74-5.97-9.76-9.5-15.07-12.62c-2.57-1.51-4.99-2.93-7.02-4.51
			c-13.13-10.23-11.84-31.31-10.69-49.9c0.25-4.15,0.5-8.06,0.57-11.74c0.24-12.26-1.36-23.31-4.76-32.83
			c-2.78-7.79-6.75-14.58-11.82-20.18c-0.9-1-1.81-1.93-2.71-2.79c6.18,2.75,10.81,6.96,15.09,13.3
			c7.86,11.65,14.74,30.89,25.16,60.01l0.53,1.48c4.51,12.6,13.32,29.24,29.68,36.92c5.68,2.67,12.9,4.12,20.08,4.12
			c1.77,0,3.54-0.09,5.28-0.27c10.23-1.06,18.69-5.11,23.81-11.41c5.71-7.02,7.36-17.36,4.65-29.11
			c-1.93-8.33-4.48-16.58-6.94-24.57c-1.92-6.21-3.9-12.63-5.54-18.95c-4.86-18.7-8.21-37.58-9.98-56.12
			c-1.25-13.12-0.62-23.92,1.86-32.1c1.95-6.43,5.07-11.25,9.27-14.32c7.51-5.49,17.53-4.81,24.49-3.33
			c-0.17,3.18,1.44,7.46,7.7,12.61c4.89,4.03,11.86,8,19.61,11.19c15.67,6.45,43.94,8.41,45.14,8.49c0.12,0.01,0.24,0.01,0.36,0.01
			c2.14,0,4.09-1.29,4.91-3.29C580.59,260.68,580.01,258.24,578.28,256.75z"/>
	</g>
	<path id="XMLID_61_" class="st0" d="M284.59,190.18l2.51-5.98L102.66,6.86c-0.6-0.58-1.53-0.57-2.03,0.02L87.88,21.95
		c-0.47,0.56-0.37,1.43,0.24,1.94L284.59,190.18z"/>
	<g>
		<path class="st0" d="M368.63,294.36c-8.93,6.63-23.46,10.94-39.86,10.94c-15.85,0-29.94-4.02-38.93-10.26
			c1.03-0.37,2.06-0.73,3.1-1.09c1.98-0.7,3.96-1.37,5.94-1.99c1.2-0.39,2.38-0.74,3.59-1.08c0.9,2.45,3.26,4.19,6.03,4.19
			c3.55,0,6.43-2.88,6.43-6.43c0-0.37-0.03-0.72-0.09-1.07c0.72-0.18,1.43-0.36,2.15-0.52c2.03-0.48,4.06-0.93,6.09-1.33
			c1.02-0.21,2.04-0.4,3.06-0.57c1.01-0.17,1.97-0.31,2.97-0.34c3.99-0.16,8,0.87,12.06,1.89c0.47,0.11,0.94,0.23,1.42,0.35
			c-0.13,0.51-0.2,1.04-0.2,1.59c0,3.55,2.88,6.43,6.43,6.43c2.98,0,5.49-2.03,6.22-4.78C359.57,291.54,364.09,292.92,368.63,294.36
			z"/>
		<path class="st0" d="M380.15,290.19c-1.58,0.44-3.19,0.69-4.82,0.75c-7.12-1.17-14.26-2.84-21.44-4.17
			c-4.1-0.77-8.19-1.58-12.27-2.47c-4.05-0.88-8.22-1.98-12.58-1.88c-1.08,0.01-2.18,0.14-3.23,0.29l-3.11,0.49l-6.19,1.04
			l-6.18,1.11l-6.17,1.06c-1.03,0.19-2.03,0.32-3.1,0.52c-1.06,0.19-2.09,0.41-3.13,0.62l-6.16,1.34c-2.05,0.44-4.08,0.9-6.12,1.3
			c-1.37,0.27-2.75,0.53-4.11,0.75c-1.2-0.09-2.39-0.29-3.56-0.59c-14.71-3.81-23.54-20.13-17.27-35.05l21.98-52.29l38.54,25.47
			c1.54,1.02,3-1.07,1.52-2.18l-37.83-28.61l26.66-63.44c-8.29-0.03-13.88-8.48-10.67-16.13l28.17-67.02
			c1.49-3.54,6.56-3.45,7.91,0.15l25.31,67.68c2.86,7.6-2.76,16.1-10.89,16.1h-0.01l45.86,121.58
			C402.74,271.17,394.2,286.22,380.15,290.19z"/>
		<path class="st0" d="M74.65,38.67c-0.63-0.48-1.5-0.39-1.95,0.2L60.79,54.62c-0.46,0.61-0.27,1.52,0.42,1.98l221.48,146.39
			l2.23-5.31L74.65,38.67z"/>
	</g>
</g>
</svg>
